<svg aria-hidden="true" style="position: absolute; width: 0; height: 0; overflow: hidden;" version="1.1" xmlns="http://www.w3.org/2000/svg" xmlns:xlink="http://www.w3.org/1999/xlink"><defs><symbol id="burger" viewBox="0 0 32 32"><path d="M2.666 8c0-0.737 0.597-1.334 1.334-1.334v0h24c0.737 0 1.334 0.597 1.334 1.334s-0.597 1.334-1.334 1.334h-24c-0.737 0-1.334-0.597-1.334-1.334v0zM2.666 16.042c0.001-0.736 0.598-1.333 1.334-1.333 0 0 0 0 0 0h24c0.012-0 0.025-0.001 0.039-0.001 0.737 0 1.334 0.597 1.334 1.334s-0.597 1.334-1.334 1.334c-0.014 0-0.027-0-0.041-0.001l0.002 0h-24c-0.737 0-1.334-0.597-1.334-1.334v0zM4 22.752c-0.72 0.022-1.295 0.61-1.295 1.333s0.575 1.311 1.293 1.333l0.002 0h24c0.012 0 0.025 0.001 0.039 0.001 0.737 0 1.334-0.597 1.334-1.334s-0.597-1.334-1.334-1.334c-0.014 0-0.027 0-0.041 0.001l0.002-0h-24z"></path></symbol><symbol id="burger-close" viewBox="0 0 30 32"><path d="M16.219 14.826l4.928-4.923c0.156-0.177 0.252-0.412 0.252-0.668 0-0.559-0.453-1.013-1.013-1.013-0.257 0-0.492 0.096-0.67 0.253l0.001-0.001-4.927 4.874-4.959-4.955c-0.175-0.146-0.402-0.235-0.649-0.235-0.56 0-1.014 0.454-1.014 1.014 0 0.247 0.089 0.474 0.236 0.65l-0.001-0.002 4.948 5.006-4.847 4.782c-0.211 0.187-0.344 0.458-0.344 0.76 0 0.559 0.454 1.013 1.013 1.013 0.303 0 0.574-0.133 0.76-0.343l0.001-0.001 4.836-4.832 4.806 4.801c0.175 0.146 0.402 0.235 0.649 0.235 0.56 0 1.014-0.454 1.014-1.014 0-0.247-0.089-0.474-0.236-0.65l0.001 0.002-4.785-4.751z"></path></symbol><symbol id="arrow" viewBox="0 0 38 32"><path fill="#fff" style="fill: var(--color1, #fff)" d="M0 25.6v-19.2c0-3.535 2.865-6.4 6.4-6.4h25.6c3.535 0 6.4 2.865 6.4 6.4v19.2c0 3.535-2.865 6.4-6.4 6.4h-25.6c-3.535 0-6.4-2.865-6.4-6.4z"></path><path d="M10.76 16.724l11.146 10.62c0.179 0.171 0.422 0.276 0.69 0.276s0.511-0.105 0.69-0.277l0.012-0.012c0.176-0.168 0.286-0.405 0.286-0.667s-0.11-0.499-0.286-0.666l-0-0-10.496-10 10.496-9.996c0.177-0.168 0.287-0.405 0.287-0.667s-0.11-0.499-0.286-0.667l-0.012-0.012c-0.179-0.171-0.422-0.276-0.69-0.276s-0.511 0.105-0.69 0.277l0-0-11.146 10.62c-0.191 0.183-0.31 0.439-0.31 0.724s0.119 0.541 0.309 0.724l0 0z"></path></symbol><symbol id="small-arrow" viewBox="0 0 34 32"><path d="M21.931 15.71a.9.9 0 0 1 0 1.276l-9.207 9.209a.9.9 0 0 1-1.278 0l-.425-.425a.902.902 0 0 1 0-1.28l8.142-8.139-8.142-8.144a.9.9 0 0 1 0-1.278l.425-.425a.902.902 0 0 1 1.28 0l9.205 9.207z"/></symbol><symbol id="star" viewBox="0 0 34 32"><path fill="#ffe550" style="fill:var(--color1, #ffe550)" d="M15.42 1.038c.584-1.384 2.576-1.384 3.16 0L22.028 9.2c.246.582.804.98 1.444 1.032l8.952.706c1.516.12 2.132 1.982.976 2.958l-6.82 5.752a1.666 1.666 0 0 0-.55 1.682l-.002-.011 2.084 8.6c.352 1.456-1.258 2.608-2.556 1.828l-7.664-4.61a1.734 1.734 0 0 0-1.792.004l.008-.004-7.664 4.61c-1.3.78-2.908-.372-2.556-1.828l2.084-8.6a1.663 1.663 0 0 0-.55-1.667l-.003-.002-6.82-5.75c-1.156-.976-.54-2.84.976-2.96l8.952-.704a1.714 1.714 0 0 0 1.44-1.021l.004-.011 3.448-8.164z"/></symbol><symbol id="alarm" viewBox="0 0 32 32"><path fill="none" stroke="#ff705d" style="stroke:var(--color1, #ff705d)" stroke-linejoin="round" stroke-linecap="round" stroke-width="2.285" d="M16 11.429v6.856m0 8a1.144 1.144 0 1 0-.003-2.286H16a1.144 1.144 0 0 0-.003 2.286H16z"/><path fill="none" stroke="#ff705d" style="stroke:var(--color1, #ff705d)" stroke-linejoin="round" stroke-linecap="round" stroke-width="2.285" d="M18.035 2.4a2.284 2.284 0 0 0-4.06-.012l-.006.013L1.396 27.542a2.285 2.285 0 0 0 2.034 3.314h25.144a2.285 2.285 0 0 0 2.028-3.325l.006.013L18.035 2.397z"/></symbol></defs></svg>